#!OML:ASF G:\JayActor3\Patient Classification 1\Patient 1\Session 5\male.ASF
:FULLY-SPECIFIED
:DEGREES
418
root 15.7162 16.6353 -5.22386 734.026 93.8091 737.344
lowerback 0.587195 -1.68938 0.750451
upperback 1.82362 -2.23928 -0.28358
thorax 1.49827 -1.1009 -0.725905
lowerneck -10.0865 1.27401 3.26313
upperneck 13.9411 1.31614 -0.199149
head 5.90339 0.831297 -0.488765
rclavicle 3.38245e-015 -3.77691e-015
rhumerus -37.4775 -15.2744 -80.3811
rradius 18.9918
rwrist 14.1198
rhand -16.256 -4.97967
rfingers 7.12502
rthumb 9.95319 -34.7244
lclavicle 3.38245e-015 -3.77691e-015
lhumerus -28.0116 9.71421 83.719
lradius 21.785
lwrist 7.45084
lhand -17.1989 13.2344
lfingers 7.12502
lthumb 9.04346 43.0206
rfemur -20.7931 2.82434 26.1636
rtibia 34.2403
rfoot -14.577 -16.8531
rtoes 10.6138
lfemur 14.4671 9.08453 -12.9198
ltibia 41.3614
lfoot 15.0331 2.25472
ltoes -10.2907
419
root 15.8864 16.6553 -5.20822 740.467 94.1476 743.917
lowerback 0.675071 -1.67401 1.36269
upperback 1.84194 -2.22059 -0.15997
thorax 1.45017 -1.08387 -0.938761
lowerneck -10.1551 1.24464 3.2642
upperneck 14.0161 1.2675 -0.155403
head 5.93774 0.812225 -0.478459
rclavicle 2.4112e-014 -1.19271e-015
rhumerus -37.3637 -15.0376 -80.5166
rradius 19.1542
rwrist 13.869
rhand -16.2934 -5.02509
rfingers 7.12502
rthumb 9.91708 -34.7715
lclavicle 2.4112e-014 -1.19271e-015
lhumerus -28.4815 10.3001 83.3841
lradius 21.5226
lwrist 7.40387
lhand -17.2344 13.2399
lfingers 7.12502
lthumb 9.00914 43.0275
rfemur -19.7127 2.53515 26.8863
rtibia 33.7451
rfoot -14.7142 -16.7811
rtoes 11.0112
lfemur 12.6927 8.7129 -12.2982
ltibia 44.5332
lfoot 15.94 3.05666
ltoes -8.97585
420
root 16.0527 16.6734 -5.19247 745.497 94.5028 749.054
lowerback 0.741768 -1.65363 1.91883
upperback 1.86724 -2.19389 -0.0414894
thorax 1.42378 -1.06323 -1.12638
lowerneck -10.2129 1.21217 3.25316
upperneck 14.0457 1.2162 -0.110735
head 5.95581 0.790546 -0.466308
rclavicle 1.20373e-014 -3.57812e-015
rhumerus -37.1992 -14.7687 -80.6751
rradius 19.327
rwrist 13.6039
rhand -16.3767 -5.06493
rfingers 7.12502
rthumb 9.83677 -34.8152
lclavicle 1.20373e-014 -3.57812e-015
lhumerus -28.9045 10.8401 83.0654
lradius 21.2653
lwrist 7.39512
lhand -17.2964 13.2171
lfingers 7.12502
lthumb 8.94929 43.0073
rfemur -18.6894 2.2647 27.5582
rtibia 33.2529
rfoot -14.877 -16.7104
rtoes 11.3311
lfemur 10.8965 8.34089 -11.7561
ltibia 47.5242
lfoot 16.3221 3.68198
ltoes -8.3479
421
root 16.2154 16.6897 -5.17751 749.36 94.8544 753.01
lowerback 0.799402 -1.62628 2.42316
upperback 1.89643 -2.15689 0.0656181
thorax 1.40891 -1.03777 -1.29707
lowerneck -10.243 1.17428 3.24006
upperneck 14.0326 1.15891 -0.0680293
head 5.95557 0.765079 -0.455199
rclavicle 1.73082e-014 -1.78906e-015
rhumerus -36.9973 -14.4751 -80.8495
rradius 19.506
rwrist 13.3287
rhand -16.4866 -5.10558
rfingers 7.12502
rthumb 9.73072 -34.8608
lclavicle 1.73082e-014 -1.78906e-015
lhumerus -29.2922 11.3189 82.7657
lradius 21.0128
lwrist 7.40077
lhand -17.3931 13.1909
lfingers 7.12502
lthumb 8.856 42.985
rfemur -17.7151 2.01195 28.1708
rtibia 32.7886
rfoot -15.0783 -16.6355
rtoes 11.5584
lfemur 9.11363 7.97257 -11.2971
ltibia 50.3027
lfoot 16.1678 4.07383
ltoes -8.26348
422
root 16.3752 16.7045 -5.16352 752.145 95.1768 755.88
lowerback 0.853255 -1.59475 2.85619
upperback 1.93187 -2.1135 0.155157
thorax 1.40533 -1.00962 -1.44617
lowerneck -10.2611 1.13597 3.22629
upperneck 13.9922 1.10168 -0.0272862
head 5.9447 0.739001 -0.444734
rclavicle 1.71157e-014 1.78906e-015
rhumerus -36.7533 -14.1657 -81.0351
rradius 19.682
rwrist 13.0537
rhand -16.6121 -5.14085
rfingers 7.12502
rthumb 9.60964 -34.9017
lclavicle 1.71157e-014 1.78906e-015
lhumerus -29.6491 11.743 82.483
lradius 20.7726
lwrist 7.39755
lhand -17.5148 13.171
lfingers 7.12502
lthumb 8.73862 42.9701
rfemur -16.785 1.78082 28.7013
rtibia 32.3665
rfoot -15.3173 -16.5486
rtoes 11.7062
lfemur 7.367 7.60563 -10.9438
ltibia 52.8413
lfoot 15.5437 4.2187
ltoes -8.58539
423
root 16.5325 16.7182 -5.15021 753.971 95.4416 757.776
lowerback 0.894142 -1.55405 3.19397
upperback 1.9696 -2.05779 0.219548
thorax 1.4149 -0.976176 -1.5683
lowerneck -10.2661 1.09323 3.20563
upperneck 13.9346 1.03857 0.0231891
head 5.92601 0.710199 -0.430644
rclavicle 6.28501e-015 -9.14409e-015
rhumerus -36.4748 -13.8546 -81.2228
rradius 19.8442
rwrist 12.8029
rhand -16.7626 -5.13349
rfingers 7.12502
rthumb 9.46441 -34.901
lclavicle 6.28501e-015 -9.14409e-015
lhumerus -29.9818 12.1002 82.2194
lradius 20.5497
lwrist 7.37451
lhand -17.6442 13.1494
lfingers 7.12502
lthumb 8.6137 42.9536
rfemur -15.9062 1.57347 29.1282
rtibia 31.9916
rfoot -15.5895 -16.4481
rtoes 11.7637
lfemur 5.65948 7.23173 -10.7252
ltibia 55.1183
lfoot 14.5775 4.14395
ltoes -9.12498
424
root 16.6872 16.7308 -5.13705 755.035 95.6353 758.893
lowerback 0.922921 -1.5039 3.4273
upperback 2.0102 -1.98978 0.258165
thorax 1.43789 -0.937632 -1.65894
lowerneck -10.267 1.04909 3.18715
upperneck 13.8695 0.972924 0.0767901
head 5.9043 0.680388 -0.416154
rclavicle 2.23477e-014 8.94531e-015
rhumerus -36.1614 -13.5362 -81.4199
rradius 20.0002
rwrist 12.5615
rhand -16.9253 -5.10877
rfingers 7.12502
rthumb 9.30747 -34.8833
lclavicle 2.23477e-014 8.94531e-015
lhumerus -30.2962 12.4001 81.9694
lradius 20.3546
lwrist 7.30648
lhand -17.7518 13.1878
lfingers 7.12502
lthumb 8.50984 42.9963
rfemur -15.0813 1.39089 29.4512
rtibia 31.6696
rfoot -15.8852 -16.3336
rtoes 11.7439
lfemur 3.99147 6.84422 -10.643
ltibia 57.1233
lfoot 13.4464 3.92672
ltoes -9.69068
425
root 16.8395 16.7425 -5.12358 755.71 95.7618 759.608
lowerback 0.946407 -1.441 3.57899
upperback 2.05175 -1.90495 0.277221
thorax 1.46807 -0.891604 -1.72422
lowerneck -10.2735 1.00315 3.16192
upperneck 13.8134 0.90357 0.145949
head 5.88629 0.649756 -0.395889
rclavicle 1.30763e-014 -3.97569e-015
rhumerus -35.8144 -13.2185 -81.6199
rradius 20.1488
rwrist 12.3447
rhand -17.0689 -5.08289
rfingers 7.12502
rthumb 9.16885 -34.8636
lclavicle 1.30763e-014 -3.97569e-015
lhumerus -30.5977 12.641 81.7339
lradius 20.1921
lwrist 7.19951
lhand -17.8104 13.256
lfingers 7.12502
lthumb 8.45335 43.0668
rfemur -14.313 1.24105 29.7012
rtibia 31.4033
rfoot -16.1927 -16.2155
rtoes 11.644
lfemur 2.36472 6.44496 -10.6621
ltibia 58.8552
lfoot 12.2404 3.635
ltoes -10.2358
426
root 16.9892 16.7528 -5.10958 756.104 95.8231 760.034
lowerback 0.972465 -1.36426 3.65411
upperback 2.09392 -1.80158 0.279092
thorax 1.50054 -0.8373 -1.76429
lowerneck -10.2797 0.95541 3.13982
upperneck 13.7667 0.830896 0.219174
head 5.87122 0.618169 -0.375091
rclavicle 1.15947e-014 -6.95746e-015
rhumerus -35.4434 -12.8938 -81.826
rradius 20.2984
rwrist 12.1421
rhand -17.203 -5.05859
rfingers 7.12502
rthumb 9.03949 -34.8449
lclavicle 1.15947e-014 -6.95746e-015
lhumerus -30.8908 12.8364 81.509
lradius 20.0603
lwrist 7.04485
lhand -17.8191 13.3468
lfingers 7.12502
lthumb 8.44491 43.158
rfemur -13.5947 1.12256 29.8879
rtibia 31.1935
rfoot -16.5167 -16.0977
rtoes 11.4871
lfemur 0.784317 6.03742 -10.7683
ltibia 60.3215
lfoot 10.9958 3.29859
ltoes -10.7308
427
root 17.1364 16.7618 -5.09511 756.338 95.8263 760.293
lowerback 1.00524 -1.27328 3.66766
upperback 2.13344 -1.67887 0.267123
thorax 1.52911 -0.774336 -1.78395
lowerneck -10.2908 0.904983 3.12011
upperneck 13.7402 0.753755 0.295946
head 5.86336 0.585192 -0.353851
rclavicle 1.24085e-014 -2.98177e-015
rhumerus -35.0531 -12.5623 -82.0365
rradius 20.4501
rwrist 11.9397
rhand -17.3148 -5.0589
rfingers 7.12502
rthumb 8.93159 -34.8498
lclavicle 1.24085e-014 -2.98177e-015
lhumerus -31.1838 12.9785 81.2989
lradius 19.9675
lwrist 6.87037
lhand -17.7873 13.4515
lfingers 7.12502
lthumb 8.47558 43.2614
rfemur -12.9238 1.03457 30.025
rtibia 31.0358
rfoot -16.8582 -15.9838
rtoes 11.2945
lfemur -0.751207 5.6355 -10.9416
ltibia 61.5365
lfoot 9.72338 2.91791
ltoes -11.2241
428
root 17.2813 16.7689 -5.08059 756.553 95.789 760.529
lowerback 1.04865 -1.17306 3.64797
upperback 2.17083 -1.5433 0.247624
thorax 1.55095 -0.705592 -1.79248
lowerneck -10.319 0.853391 3.09902
upperneck 13.7446 0.675151 0.369965
head 5.86821 0.551769 -0.333244
rclavicle -2.47642e-014 2.5842e-015
rhumerus -34.6423 -12.2124 -82.2519
rradius 20.6051
rwrist 11.7216
rhand -17.3913 -5.08628
rfingers 7.12502
rthumb 8.85773 -34.8804
lclavicle -2.47642e-014 2.5842e-015
lhumerus -31.4793 13.0869 81.0999
lradius 19.9101
lwrist 6.69428
lhand -17.7255 13.5215
lfingers 7.12502
lthumb 8.53522 43.329
rfemur -12.2906 0.963078 30.1334
rtibia 30.9247
rfoot -17.2153 -15.8558
rtoes 11.1103
lfemur -2.23891 5.24209 -11.1563
ltibia 62.5197
lfoot 8.3974 2.54238
ltoes -11.6522
429
root 17.4244 16.7737 -5.06652 756.96 95.7303 760.96
lowerback 1.10648 -1.06306 3.63245
upperback 2.20469 -1.39395 0.22565
thorax 1.56173 -0.630111 -1.80559
lowerneck -10.3495 0.798347 3.08077
upperneck 13.7703 0.592097 0.439966
head 5.88022 0.516484 -0.314689
rclavicle -1.207e-014 1.43125e-014
rhumerus -34.226 -11.8593 -82.4654
rradius 20.7649
rwrist 11.5034
rhand -17.4493 -5.10785
rfingers 7.12502
rthumb 8.80183 -34.9043
lclavicle -1.207e-014 1.43125e-014
lhumerus -31.7792 13.1492 80.9154
lradius 19.8843
lwrist 6.55213
lhand -17.6609 13.544
lfingers 7.12502
lthumb 8.59759 43.3489
rfemur -11.6785 0.903088 30.2421
rtibia 30.8489
rfoot -17.5868 -15.7078
rtoes 10.9561
lfemur -3.6725 4.86635 -11.3758
ltibia 63.2905
lfoot 6.99385 2.19894
ltoes -12.0577
430
root 17.566 16.776 -5.05338 757.701 95.6659 761.729
lowerback 1.17581 -0.948084 3.64808
upperback 2.23774 -1.23734 0.206806
thorax 1.56518 -0.550613 -1.83281
lowerneck -10.3951 0.744009 3.06567
upperneck 13.8211 0.510698 0.497826
head 5.90284 0.481717 -0.300273
rclavicle 7.7526e-015 -5.96354e-016
rhumerus -33.7983 -11.5068 -82.671
rradius 20.92
rwrist 11.283
rhand -17.4961 -5.06126
rfingers 7.12502
rthumb 8.7566 -34.8596
lclavicle 7.7526e-015 -5.96354e-016
lhumerus -32.0858 13.171 80.7477
lradius 19.8978
lwrist 6.47164
lhand -17.6011 13.5282
lfingers 7.12502
lthumb 8.65526 43.3308
rfemur -11.0794 0.842682 30.3685
rtibia 30.7989
rfoot -17.9624 -15.5242
rtoes 10.8475
lfemur -5.05468 4.51545 -11.5771
ltibia 63.8681
lfoot 5.48601 1.91306
ltoes -12.4732
